# 3ds Max Wavefront OBJ Exporter v0.99 - (c)2007 guruware
# File Created: 24.10.2025 21:34:40

mtllib blockade.mtl

#
# object Circle002
#

v  1.5516 0.0591 -0.0000
v  1.5516 0.0591 -0.3296
v  0.4271 0.0591 -0.3296
v  0.4658 0.0591 -0.2722
v  0.4971 0.0591 -0.2099
v  0.5203 0.0591 -0.1433
v  0.5346 0.0591 -0.0732
v  0.5396 0.0591 -0.0000
v  0.5346 0.0591 0.0732
v  0.5203 0.0591 0.1433
v  0.4971 0.0591 0.2099
v  0.4658 0.0591 0.2722
v  1.5516 0.0591 0.3296
v  0.4271 0.0591 0.3296
v  -0.5396 0.0591 0.0000
v  -0.5346 0.0591 -0.0732
v  -1.5516 0.0591 0.0000
v  -0.5346 0.0591 0.0732
v  -0.5203 0.0591 0.1433
v  -0.4971 0.0591 0.2099
v  -0.4658 0.0591 0.2722
v  -0.5203 0.0591 -0.1433
v  -0.4971 0.0591 -0.2099
v  -0.4658 0.0591 -0.2722
v  -1.5516 0.0591 -0.3296
v  -0.4271 0.0591 -0.3296
v  -1.5516 0.0591 0.3296
v  -0.4271 0.0591 0.3296
v  -0.0000 0.0591 -0.0000
v  -0.3814 0.0591 0.3814
v  -0.3296 0.0591 0.4271
v  -0.2722 0.0591 0.4658
v  -0.2099 0.0591 0.4971
v  -0.1433 0.0591 0.5203
v  -0.0732 0.0591 0.5346
v  0.0000 0.0591 0.5396
v  0.0732 0.0591 0.5346
v  0.1433 0.0591 0.5203
v  0.2099 0.0591 0.4971
v  0.2722 0.0591 0.4658
v  0.3296 0.0591 0.4271
v  0.3814 0.0591 0.3814
v  0.3814 0.0591 -0.3814
v  0.3296 0.0591 -0.4271
v  0.2722 0.0591 -0.4658
v  0.2099 0.0591 -0.4971
v  0.1433 0.0591 -0.5203
v  0.0732 0.0591 -0.5346
v  -0.0000 0.0591 -0.5396
v  -0.0732 0.0591 -0.5346
v  -0.1433 0.0591 -0.5203
v  -0.2099 0.0591 -0.4971
v  -0.2722 0.0591 -0.4658
v  -0.3296 0.0591 -0.4271
v  -0.3814 0.0591 -0.3814
v  0.4271 -0.0591 -0.3296
v  1.5516 -0.0591 -0.3296
v  1.5516 -0.0591 -0.0000
v  0.4658 -0.0591 -0.2722
v  0.4971 -0.0591 -0.2099
v  0.5203 -0.0591 -0.1433
v  0.5346 -0.0591 -0.0732
v  0.5396 -0.0591 -0.0000
v  0.5346 -0.0591 0.0732
v  0.5203 -0.0591 0.1433
v  0.4971 -0.0591 0.2099
v  0.4658 -0.0591 0.2722
v  1.5516 -0.0591 0.3296
v  0.4271 -0.0591 0.3296
v  -1.5516 -0.0591 0.0000
v  -0.5346 -0.0591 -0.0732
v  -0.5396 -0.0591 0.0000
v  -0.5346 -0.0591 0.0732
v  -0.5203 -0.0591 0.1433
v  -0.4971 -0.0591 0.2099
v  -0.4658 -0.0591 0.2722
v  -0.5203 -0.0591 -0.1433
v  -0.4971 -0.0591 -0.2099
v  -0.4658 -0.0591 -0.2722
v  -1.5516 -0.0591 -0.3296
v  -0.4271 -0.0591 -0.3296
v  -0.4271 -0.0591 0.3296
v  -1.5516 -0.0591 0.3296
v  -0.0000 -0.0591 -0.0000
v  -0.3814 -0.0591 0.3814
v  -0.3296 -0.0591 0.4271
v  -0.2722 -0.0591 0.4658
v  -0.2099 -0.0591 0.4971
v  -0.1433 -0.0591 0.5203
v  -0.0732 -0.0591 0.5346
v  0.0000 -0.0591 0.5396
v  0.0732 -0.0591 0.5346
v  0.1433 -0.0591 0.5203
v  0.2099 -0.0591 0.4971
v  0.2722 -0.0591 0.4658
v  0.3296 -0.0591 0.4271
v  0.3814 -0.0591 0.3814
v  0.3814 -0.0591 -0.3814
v  0.3296 -0.0591 -0.4271
v  0.2722 -0.0591 -0.4658
v  0.2099 -0.0591 -0.4971
v  0.1433 -0.0591 -0.5203
v  0.0732 -0.0591 -0.5346
v  -0.0000 -0.0591 -0.5396
v  -0.0732 -0.0591 -0.5346
v  -0.1433 -0.0591 -0.5203
v  -0.2099 -0.0591 -0.4971
v  -0.2722 -0.0591 -0.4658
v  -0.3296 -0.0591 -0.4271
v  -0.3814 -0.0591 -0.3814
# 110 vertices

vn 0.0000 1.0000 -0.0000
vn 0.0000 1.0000 0.0000
vn -0.0000 1.0000 0.0000
vn -0.0000 1.0000 -0.0000
vn 0.0000 -1.0000 -0.0000
vn 0.0000 -1.0000 0.0000
vn -0.0000 -1.0000 0.0000
vn -0.0000 -1.0000 -0.0000
vn 1.0000 0.0000 -0.0000
vn 0.0000 0.0000 -1.0000
vn 0.0000 0.0000 1.0000
vn -1.0000 0.0000 -0.0000
vn -0.7506 0.0000 0.6608
vn -0.7071 0.0000 0.7071
vn -0.6116 0.0000 0.7912
vn -0.5054 0.0000 0.8629
vn -0.3894 0.0000 0.9210
vn -0.2650 0.0000 0.9642
vn -0.1342 0.0000 0.9910
vn -0.0000 0.0000 1.0000
vn 0.1342 0.0000 0.9910
vn 0.2650 0.0000 0.9642
vn 0.3894 0.0000 0.9210
vn 0.5054 0.0000 0.8629
vn 0.6116 0.0000 0.7912
vn 0.7071 0.0000 0.7071
vn 0.7506 0.0000 0.6608
vn 0.7506 0.0000 -0.6608
vn 0.7071 0.0000 -0.7071
vn 0.6116 0.0000 -0.7912
vn 0.5054 0.0000 -0.8629
vn 0.3894 0.0000 -0.9210
vn 0.2650 0.0000 -0.9642
vn 0.1342 0.0000 -0.9910
vn -0.1342 0.0000 -0.9910
vn -0.2650 0.0000 -0.9642
vn -0.3894 0.0000 -0.9210
vn -0.5054 0.0000 -0.8629
vn -0.6116 0.0000 -0.7912
vn -0.7071 0.0000 -0.7071
vn -0.7506 0.0000 -0.6608
# 41 vertex normals

vt 0.9980 0.5000 0.0000
vt 0.9980 0.7116 0.0000
vt 0.6371 0.7116 0.0000
vt 0.6495 0.6748 0.0000
vt 0.6596 0.6348 0.0000
vt 0.6670 0.5920 0.0000
vt 0.6716 0.5470 0.0000
vt 0.6732 0.5000 0.0000
vt 0.6716 0.4530 0.0000
vt 0.6670 0.4080 0.0000
vt 0.6596 0.3652 0.0000
vt 0.6495 0.3252 0.0000
vt 0.9980 0.2884 0.0000
vt 0.6371 0.2884 0.0000
vt 0.3268 0.5000 0.0000
vt 0.3284 0.5470 0.0000
vt 0.0020 0.5000 0.0000
vt 0.3284 0.4530 0.0000
vt 0.3330 0.4080 0.0000
vt 0.3404 0.3652 0.0000
vt 0.3505 0.3252 0.0000
vt 0.3330 0.5920 0.0000
vt 0.3404 0.6348 0.0000
vt 0.3505 0.6748 0.0000
vt 0.0020 0.7116 0.0000
vt 0.3629 0.7116 0.0000
vt 0.0020 0.2884 0.0000
vt 0.3629 0.2884 0.0000
vt 0.5000 0.5000 0.0000
vt 0.3776 0.2551 0.0000
vt 0.3942 0.2258 0.0000
vt 0.4126 0.2009 0.0000
vt 0.4326 0.1808 0.0000
vt 0.4540 0.1660 0.0000
vt 0.4765 0.1568 0.0000
vt 0.5000 0.1536 0.0000
vt 0.5235 0.1568 0.0000
vt 0.5460 0.1660 0.0000
vt 0.5674 0.1808 0.0000
vt 0.5874 0.2009 0.0000
vt 0.6058 0.2258 0.0000
vt 0.6224 0.2551 0.0000
vt 0.6224 0.7449 0.0000
vt 0.6058 0.7742 0.0000
vt 0.5874 0.7991 0.0000
vt 0.5674 0.8192 0.0000
vt 0.5460 0.8340 0.0000
vt 0.5235 0.8432 0.0000
vt 0.5000 0.8464 0.0000
vt 0.4765 0.8432 0.0000
vt 0.4540 0.8340 0.0000
vt 0.4326 0.8192 0.0000
vt 0.4126 0.7991 0.0000
vt 0.3942 0.7742 0.0000
vt 0.3776 0.7449 0.0000
vt 0.0020 0.0177 0.0000
vt 0.0441 0.0177 0.0000
vt 0.0441 0.0328 0.0000
vt 0.0020 0.0328 0.0000
vt 0.1880 0.0177 0.0000
vt 0.1880 0.0328 0.0000
vt 0.8120 0.0177 0.0000
vt 0.9559 0.0177 0.0000
vt 0.9559 0.0328 0.0000
vt 0.8120 0.0328 0.0000
vt 0.9980 0.0177 0.0000
vt 0.9980 0.0328 0.0000
vt 0.3140 0.0177 0.0000
vt 0.4578 0.0177 0.0000
vt 0.4578 0.0328 0.0000
vt 0.3140 0.0328 0.0000
vt 0.5000 0.0177 0.0000
vt 0.5000 0.0328 0.0000
vt 0.5422 0.0177 0.0000
vt 0.5422 0.0328 0.0000
vt 0.6860 0.0177 0.0000
vt 0.6860 0.0328 0.0000
vt 0.6949 0.0177 0.0000
vt 0.6949 0.0328 0.0000
vt 0.7037 0.0177 0.0000
vt 0.7037 0.0328 0.0000
vt 0.7125 0.0177 0.0000
vt 0.7125 0.0328 0.0000
vt 0.7215 0.0177 0.0000
vt 0.7215 0.0328 0.0000
vt 0.7305 0.0177 0.0000
vt 0.7305 0.0328 0.0000
vt 0.7396 0.0177 0.0000
vt 0.7396 0.0328 0.0000
vt 0.7490 0.0177 0.0000
vt 0.7490 0.0328 0.0000
vt 0.7584 0.0177 0.0000
vt 0.7584 0.0328 0.0000
vt 0.7676 0.0177 0.0000
vt 0.7676 0.0328 0.0000
vt 0.7766 0.0177 0.0000
vt 0.7766 0.0328 0.0000
vt 0.7855 0.0177 0.0000
vt 0.7855 0.0328 0.0000
vt 0.7944 0.0177 0.0000
vt 0.7944 0.0328 0.0000
vt 0.8032 0.0177 0.0000
vt 0.8032 0.0328 0.0000
vt 0.1968 0.0177 0.0000
vt 0.1968 0.0328 0.0000
vt 0.2056 0.0177 0.0000
vt 0.2056 0.0328 0.0000
vt 0.2145 0.0177 0.0000
vt 0.2145 0.0328 0.0000
vt 0.2234 0.0177 0.0000
vt 0.2234 0.0328 0.0000
vt 0.2324 0.0177 0.0000
vt 0.2324 0.0328 0.0000
vt 0.2416 0.0177 0.0000
vt 0.2416 0.0328 0.0000
vt 0.2510 0.0177 0.0000
vt 0.2510 0.0328 0.0000
vt 0.2604 0.0177 0.0000
vt 0.2604 0.0328 0.0000
vt 0.2695 0.0177 0.0000
vt 0.2695 0.0328 0.0000
vt 0.2785 0.0177 0.0000
vt 0.2785 0.0328 0.0000
vt 0.2875 0.0177 0.0000
vt 0.2875 0.0328 0.0000
vt 0.2963 0.0177 0.0000
vt 0.2963 0.0328 0.0000
vt 0.3052 0.0177 0.0000
vt 0.3052 0.0328 0.0000
# 129 texture coords

o Circle002
g Circle002
usemtl wire_088177027
s off
f 1/1/1 2/2/1 3/3/1 
f 3/3/1 4/4/1 1/1/1 
f 4/4/1 5/5/1 1/1/1 
f 5/5/1 6/6/1 1/1/1 
f 6/6/1 7/7/1 1/1/1 
f 7/7/1 8/8/1 1/1/1 
f 8/8/1 9/9/1 1/1/1 
f 9/9/1 10/10/1 1/1/1 
f 10/10/1 11/11/1 1/1/1 
f 11/11/1 12/12/1 1/1/1 
f 13/13/1 1/1/1 12/12/1 
f 12/12/1 14/14/1 13/13/1 
f 15/15/1 16/16/1 17/17/1 
f 18/18/1 15/15/1 17/17/1 
f 19/19/1 18/18/1 17/17/1 
f 20/20/1 19/19/1 17/17/1 
f 21/21/1 20/20/1 17/17/1 
f 16/16/1 22/22/1 17/17/1 
f 22/22/1 23/23/1 17/17/1 
f 23/23/1 24/24/1 17/17/1 
f 25/25/1 17/17/1 24/24/1 
f 24/24/1 26/26/1 25/25/1 
f 17/17/1 27/27/1 28/28/1 
f 28/28/1 21/21/1 17/17/1 
f 16/16/1 15/15/1 29/29/1 
f 15/15/1 18/18/1 29/29/1 
f 18/18/1 19/19/1 29/29/1 
f 19/19/1 20/20/1 29/29/1 
f 20/20/1 21/21/1 29/29/1 
f 21/21/1 28/28/1 29/29/1 
f 28/28/1 30/30/1 29/29/1 
f 30/30/1 31/31/1 29/29/1 
f 31/31/1 32/32/1 29/29/1 
f 32/32/1 33/33/1 29/29/1 
f 33/33/2 34/34/2 29/29/2 
f 34/34/3 35/35/3 29/29/3 
f 35/35/3 36/36/3 29/29/3 
f 36/36/1 37/37/1 29/29/1 
f 37/37/1 38/38/1 29/29/1 
f 38/38/1 39/39/1 29/29/1 
f 39/39/1 40/40/1 29/29/1 
f 40/40/1 41/41/1 29/29/1 
f 41/41/1 42/42/1 29/29/1 
f 42/42/3 14/14/3 29/29/3 
f 14/14/1 12/12/1 29/29/1 
f 12/12/1 11/11/1 29/29/1 
f 11/11/1 10/10/1 29/29/1 
f 10/10/1 9/9/1 29/29/1 
f 9/9/1 8/8/1 29/29/1 
f 8/8/1 7/7/1 29/29/1 
f 7/7/1 6/6/1 29/29/1 
f 6/6/1 5/5/1 29/29/1 
f 5/5/1 4/4/1 29/29/1 
f 4/4/1 3/3/1 29/29/1 
f 3/3/4 43/43/4 29/29/4 
f 43/43/2 44/44/2 29/29/2 
f 44/44/1 45/45/1 29/29/1 
f 45/45/1 46/46/1 29/29/1 
f 46/46/1 47/47/1 29/29/1 
f 47/47/4 48/48/4 29/29/4 
f 48/48/1 49/49/1 29/29/1 
f 49/49/1 50/50/1 29/29/1 
f 50/50/1 51/51/1 29/29/1 
f 51/51/1 52/52/1 29/29/1 
f 52/52/1 53/53/1 29/29/1 
f 53/53/3 54/54/3 29/29/3 
f 54/54/4 55/55/4 29/29/4 
f 55/55/1 26/26/1 29/29/1 
f 26/26/1 24/24/1 29/29/1 
f 24/24/1 23/23/1 29/29/1 
f 23/23/1 22/22/1 29/29/1 
f 22/22/1 16/16/1 29/29/1 
f 56/3/5 57/2/5 58/1/5 
f 58/1/5 59/4/5 56/3/5 
f 58/1/5 60/5/5 59/4/5 
f 58/1/5 61/6/5 60/5/5 
f 58/1/5 62/7/5 61/6/5 
f 58/1/5 63/8/5 62/7/5 
f 58/1/5 64/9/5 63/8/5 
f 58/1/5 65/10/5 64/9/5 
f 58/1/5 66/11/5 65/10/5 
f 58/1/5 67/12/5 66/11/5 
f 67/12/5 58/1/5 68/13/5 
f 68/13/5 69/14/5 67/12/5 
f 70/17/5 71/16/5 72/15/5 
f 70/17/5 72/15/5 73/18/5 
f 70/17/5 73/18/5 74/19/5 
f 70/17/5 74/19/5 75/20/5 
f 70/17/5 75/20/5 76/21/5 
f 70/17/5 77/22/5 71/16/5 
f 70/17/5 78/23/5 77/22/5 
f 70/17/5 79/24/5 78/23/5 
f 79/24/5 70/17/5 80/25/5 
f 80/25/5 81/26/5 79/24/5 
f 82/28/5 83/27/5 70/17/5 
f 70/17/5 76/21/5 82/28/5 
f 84/29/5 72/15/5 71/16/5 
f 84/29/5 73/18/5 72/15/5 
f 84/29/5 74/19/5 73/18/5 
f 84/29/5 75/20/5 74/19/5 
f 84/29/5 76/21/5 75/20/5 
f 84/29/5 82/28/5 76/21/5 
f 84/29/5 85/30/5 82/28/5 
f 84/29/5 86/31/5 85/30/5 
f 84/29/5 87/32/5 86/31/5 
f 84/29/5 88/33/5 87/32/5 
f 84/29/6 89/34/6 88/33/6 
f 84/29/7 90/35/7 89/34/7 
f 84/29/7 91/36/7 90/35/7 
f 84/29/5 92/37/5 91/36/5 
f 84/29/5 93/38/5 92/37/5 
f 84/29/5 94/39/5 93/38/5 
f 84/29/5 95/40/5 94/39/5 
f 84/29/5 96/41/5 95/40/5 
f 84/29/5 97/42/5 96/41/5 
f 84/29/7 69/14/7 97/42/7 
f 84/29/5 67/12/5 69/14/5 
f 84/29/5 66/11/5 67/12/5 
f 84/29/5 65/10/5 66/11/5 
f 84/29/5 64/9/5 65/10/5 
f 84/29/5 63/8/5 64/9/5 
f 84/29/5 62/7/5 63/8/5 
f 84/29/5 61/6/5 62/7/5 
f 84/29/5 60/5/5 61/6/5 
f 84/29/5 59/4/5 60/5/5 
f 84/29/5 56/3/5 59/4/5 
f 84/29/8 98/43/8 56/3/8 
f 84/29/6 99/44/6 98/43/6 
f 84/29/5 100/45/5 99/44/5 
f 84/29/5 101/46/5 100/45/5 
f 84/29/5 102/47/5 101/46/5 
f 84/29/8 103/48/8 102/47/8 
f 84/29/5 104/49/5 103/48/5 
f 84/29/5 105/50/5 104/49/5 
f 84/29/5 106/51/5 105/50/5 
f 84/29/5 107/52/5 106/51/5 
f 84/29/5 108/53/5 107/52/5 
f 84/29/7 109/54/7 108/53/7 
f 84/29/8 110/55/8 109/54/8 
f 84/29/5 81/26/5 110/55/5 
f 84/29/5 79/24/5 81/26/5 
f 84/29/5 78/23/5 79/24/5 
f 84/29/5 77/22/5 78/23/5 
f 84/29/5 71/16/5 77/22/5 
s 1
f 58/56/9 57/57/9 2/58/9 
f 2/58/9 1/59/9 58/56/9 
s 2
f 57/57/10 56/60/10 3/61/10 
f 3/61/10 2/58/10 57/57/10 
f 69/62/11 68/63/11 13/64/11 
f 13/64/11 14/65/11 69/62/11 
s 1
f 68/63/9 58/66/9 1/67/9 
f 1/67/9 13/64/9 68/63/9 
f 81/68/10 80/69/10 25/70/10 
f 25/70/10 26/71/10 81/68/10 
s 2
f 80/69/12 70/72/12 17/73/12 
f 17/73/12 25/70/12 80/69/12 
f 70/72/12 83/74/12 27/75/12 
f 27/75/12 17/73/12 70/72/12 
s 1
f 83/74/11 82/76/11 28/77/11 
f 28/77/11 27/75/11 83/74/11 
s 4
f 82/76/13 85/78/14 30/79/14 
f 30/79/14 28/77/13 82/76/13 
f 85/78/14 86/80/15 31/81/15 
f 31/81/15 30/79/14 85/78/14 
f 86/80/15 87/82/16 32/83/16 
f 32/83/16 31/81/15 86/80/15 
f 87/82/16 88/84/17 33/85/17 
f 33/85/17 32/83/16 87/82/16 
f 88/84/17 89/86/18 34/87/18 
f 34/87/18 33/85/17 88/84/17 
f 89/86/18 90/88/19 35/89/19 
f 35/89/19 34/87/18 89/86/18 
f 90/88/19 91/90/20 36/91/20 
f 36/91/20 35/89/19 90/88/19 
f 91/90/20 92/92/21 37/93/21 
f 37/93/21 36/91/20 91/90/20 
f 92/92/21 93/94/22 38/95/22 
f 38/95/22 37/93/21 92/92/21 
f 93/94/22 94/96/23 39/97/23 
f 39/97/23 38/95/22 93/94/22 
f 94/96/23 95/98/24 40/99/24 
f 40/99/24 39/97/23 94/96/23 
f 95/98/24 96/100/25 41/101/25 
f 41/101/25 40/99/24 95/98/24 
f 96/100/25 97/102/26 42/103/26 
f 42/103/26 41/101/25 96/100/25 
f 97/102/26 69/62/27 14/65/27 
f 14/65/27 42/103/26 97/102/26 
f 56/60/28 98/104/29 43/105/29 
f 43/105/29 3/61/28 56/60/28 
f 98/104/29 99/106/30 44/107/30 
f 44/107/30 43/105/29 98/104/29 
f 99/106/30 100/108/31 45/109/31 
f 45/109/31 44/107/30 99/106/30 
f 100/108/31 101/110/32 46/111/32 
f 46/111/32 45/109/31 100/108/31 
f 101/110/32 102/112/33 47/113/33 
f 47/113/33 46/111/32 101/110/32 
f 102/112/33 103/114/34 48/115/34 
f 48/115/34 47/113/33 102/112/33 
f 103/114/34 104/116/10 49/117/10 
f 49/117/10 48/115/34 103/114/34 
f 104/116/10 105/118/35 50/119/35 
f 50/119/35 49/117/10 104/116/10 
f 105/118/35 106/120/36 51/121/36 
f 51/121/36 50/119/35 105/118/35 
f 106/120/36 107/122/37 52/123/37 
f 52/123/37 51/121/36 106/120/36 
f 107/122/37 108/124/38 53/125/38 
f 53/125/38 52/123/37 107/122/37 
f 108/124/38 109/126/39 54/127/39 
f 54/127/39 53/125/38 108/124/38 
f 109/126/39 110/128/40 55/129/40 
f 55/129/40 54/127/39 109/126/39 
f 110/128/40 81/68/41 26/71/41 
f 26/71/41 55/129/40 110/128/40 
# 216 faces

