# 3ds Max Wavefront OBJ Exporter v0.99 - (c)2007 guruware
# File Created: 24.10.2025 21:28:40

mtllib breach.mtl

#
# object Line001
#

v  -0.7413 0.0591 -0.3190
v  -0.7413 0.0000 -0.3190
v  -0.9207 0.0000 -0.2063
v  -0.9207 0.0591 -0.2063
v  -0.8896 0.0000 -0.0088
v  -0.8896 0.0591 -0.0088
v  0.7625 0.0591 0.3517
v  0.7625 0.0000 0.3517
v  0.9206 0.0000 0.2120
v  0.9206 0.0591 0.2120
v  0.8609 0.0000 -0.0004
v  0.8609 0.0591 -0.0004
v  0.3240 0.0591 0.3451
v  0.3240 0.0000 0.3451
v  0.9122 0.0000 -0.2111
v  0.9122 0.0591 -0.2111
v  0.7689 0.0000 -0.3510
v  0.7689 0.0591 -0.3510
v  0.5026 0.0000 -0.3324
v  0.5026 0.0591 -0.3324
v  0.2599 0.0000 -0.3611
v  0.2599 0.0591 -0.3611
v  0.0206 0.0591 0.3569
v  0.0206 0.0000 0.3569
v  -0.2660 0.0000 -0.3105
v  -0.2660 0.0591 -0.3105
v  -0.2255 0.0591 0.3367
v  -0.2255 0.0000 0.3367
v  -0.7531 0.0591 0.3350
v  -0.7531 0.0000 0.3350
v  -0.5171 0.0000 -0.3442
v  -0.5171 0.0591 -0.3442
v  -0.9051 0.0000 0.2124
v  -0.9051 0.0591 0.2124
v  -0.7413 -0.0591 -0.3190
v  -0.9207 -0.0591 -0.2063
v  -0.8896 -0.0591 -0.0088
v  0.7625 -0.0591 0.3517
v  0.9206 -0.0591 0.2120
v  0.8609 -0.0591 -0.0004
v  0.3240 -0.0591 0.3451
v  0.9122 -0.0591 -0.2111
v  0.7689 -0.0591 -0.3510
v  0.5026 -0.0591 -0.3324
v  0.2599 -0.0591 -0.3611
v  0.0206 -0.0591 0.3569
v  -0.2660 -0.0591 -0.3105
v  -0.2255 -0.0591 0.3367
v  -0.7531 -0.0591 0.3350
v  -0.5171 -0.0591 -0.3442
v  -0.9051 -0.0591 0.2124
v  0.0057 0.0591 -0.0128
v  0.0057 -0.0591 -0.0128
# 53 vertices

vn -0.3301 0.0000 -0.9440
vn -0.5316 0.0000 -0.8470
vn -0.9878 0.0000 0.1559
vn -0.9991 0.0000 0.0433
vn 0.3471 0.0000 0.9378
vn 0.6624 0.0000 0.7492
vn 0.9626 0.0000 -0.2709
vn 0.9998 0.0000 -0.0177
vn 0.0119 0.0000 0.9999
vn 0.9716 0.0000 0.2366
vn 0.6986 0.0000 -0.7155
vn -0.0695 0.0000 -0.9976
vn 0.0240 0.0000 -0.9997
vn 0.0108 0.0000 -0.9999
vn -0.0216 0.0000 0.9998
vn 0.0188 0.0000 -0.9998
vn -0.0426 0.0000 0.9991
vn -0.3343 0.0000 0.9424
vn 0.0106 0.0000 -0.9999
vn -0.9976 0.0000 -0.0699
vn -0.6277 0.0000 0.7784
vn -0.0000 1.0000 0.0000
vn 0.0000 1.0000 -0.0000
vn 0.0000 1.0000 0.0000
vn -0.0000 1.0000 -0.0000
vn 0.0000 -1.0000 -0.0000
vn 0.0000 -1.0000 0.0000
vn -0.0000 -1.0000 0.0000
vn -0.0000 -1.0000 -0.0000
# 29 vertex normals

vt 0.1235 0.9106 0.0000
vt 0.1149 0.9379 0.0000
vt 0.0175 0.8835 0.0000
vt 0.0316 0.8558 0.0000
vt 0.0020 0.8510 0.0000
vt 0.0171 0.7502 0.0000
vt 0.0468 0.7544 0.0000
vt 0.8886 0.5704 0.0000
vt 0.9085 0.5479 0.0000
vt 0.9890 0.6191 0.0000
vt 0.9692 0.6417 0.0000
vt 0.9980 0.6499 0.0000
vt 0.9677 0.7582 0.0000
vt 0.9388 0.7501 0.0000
vt 0.6651 0.5738 0.0000
vt 0.6646 0.5437 0.0000
vt 0.8881 0.5403 0.0000
vt 0.9681 0.7436 0.0000
vt 0.9937 0.8512 0.0000
vt 0.9646 0.8586 0.0000
vt 0.9835 0.8837 0.0000
vt 0.8995 0.9506 0.0000
vt 0.8907 0.9255 0.0000
vt 0.7584 0.9513 0.0000
vt 0.7569 0.9205 0.0000
vt 0.6330 0.9623 0.0000
vt 0.6328 0.9327 0.0000
vt 0.5106 0.5678 0.0000
vt 0.5117 0.5377 0.0000
vt 0.6663 0.5437 0.0000
vt 0.3643 0.9395 0.0000
vt 0.3642 0.9090 0.0000
vt 0.3852 0.5781 0.0000
vt 0.3827 0.5481 0.0000
vt 0.5081 0.5378 0.0000
vt 0.1163 0.5789 0.0000
vt 0.1163 0.5488 0.0000
vt 0.3852 0.5480 0.0000
vt 0.2347 0.9536 0.0000
vt 0.2355 0.9241 0.0000
vt 0.0169 0.7564 0.0000
vt 0.0089 0.6436 0.0000
vt 0.0389 0.6414 0.0000
vt 0.0200 0.6180 0.0000
vt 0.0975 0.5555 0.0000
vt 0.8756 0.4103 0.0000
vt 0.9673 0.3556 0.0000
vt 0.9814 0.3832 0.0000
vt 0.8842 0.4375 0.0000
vt 0.9522 0.2544 0.0000
vt 0.9818 0.2502 0.0000
vt 0.9969 0.3508 0.0000
vt 0.1123 0.0708 0.0000
vt 0.0319 0.1419 0.0000
vt 0.0121 0.1194 0.0000
vt 0.0925 0.0483 0.0000
vt 0.0622 0.2501 0.0000
vt 0.0334 0.2581 0.0000
vt 0.0031 0.1501 0.0000
vt 0.3353 0.0742 0.0000
vt 0.1128 0.0408 0.0000
vt 0.3358 0.0442 0.0000
vt 0.0365 0.3584 0.0000
vt 0.0075 0.3510 0.0000
vt 0.0330 0.2436 0.0000
vt 0.1102 0.4251 0.0000
vt 0.1014 0.4502 0.0000
vt 0.0177 0.3834 0.0000
vt 0.2437 0.4201 0.0000
vt 0.2422 0.4508 0.0000
vt 0.3675 0.4323 0.0000
vt 0.3673 0.4618 0.0000
vt 0.4895 0.0682 0.0000
vt 0.3341 0.0442 0.0000
vt 0.4884 0.0382 0.0000
vt 0.6355 0.4086 0.0000
vt 0.6354 0.4391 0.0000
vt 0.6145 0.0785 0.0000
vt 0.4919 0.0383 0.0000
vt 0.6170 0.0486 0.0000
vt 0.8828 0.0793 0.0000
vt 0.6146 0.0485 0.0000
vt 0.8828 0.0493 0.0000
vt 0.7639 0.4237 0.0000
vt 0.7647 0.4531 0.0000
vt 0.9600 0.1417 0.0000
vt 0.9899 0.1439 0.0000
vt 0.9820 0.2564 0.0000
vt 0.9015 0.0560 0.0000
vt 0.9788 0.1183 0.0000
vt 0.5035 0.7584 0.0000
vt 0.4965 0.2584 0.0000
# 92 texture coords

o Line001
g Line001
usemtl wire_108008136
s 2
f 1/1/1 2/2/1 3/3/2 
f 3/3/2 4/4/2 1/1/1 
s 4
f 4/4/3 3/5/3 5/6/4 
f 5/6/4 6/7/4 4/4/3 
s 2
f 7/8/5 8/9/5 9/10/6 
f 9/10/6 10/11/6 7/8/5 
s 4
f 10/11/7 9/12/7 11/13/8 
f 11/13/8 12/14/8 10/11/7 
s 2
f 13/15/9 14/16/9 8/17/5 
f 8/17/5 7/8/5 13/15/9 
s 4
f 12/14/8 11/18/8 15/19/10 
f 15/19/10 16/20/10 12/14/8 
s 8
f 16/20/11 15/21/11 17/22/11 
f 17/22/11 18/23/11 16/20/11 
s 2
f 18/23/12 17/22/12 19/24/13 
f 19/24/13 20/25/13 18/23/12 
f 20/25/13 19/24/13 21/26/14 
f 21/26/14 22/27/14 20/25/13 
f 23/28/15 24/29/15 14/30/9 
f 14/30/9 13/15/9 23/28/15 
f 22/27/14 21/26/14 25/31/16 
f 25/31/16 26/32/16 22/27/14 
f 27/33/17 28/34/17 24/35/15 
f 24/35/15 23/28/15 27/33/17 
f 29/36/18 30/37/18 28/38/17 
f 28/38/17 27/33/17 29/36/18 
f 26/32/16 25/31/16 31/39/19 
f 31/39/19 32/40/19 26/32/16 
f 32/40/19 31/39/19 2/2/1 
f 2/2/1 1/1/1 32/40/19 
s 4
f 6/7/4 5/41/4 33/42/20 
f 33/42/20 34/43/20 6/7/4 
s 2
f 34/43/21 33/44/21 30/45/18 
f 30/45/18 29/36/18 34/43/21 
f 35/46/1 36/47/2 3/48/2 
f 3/48/2 2/49/1 35/46/1 
s 4
f 36/47/3 37/50/4 5/51/4 
f 5/51/4 3/52/3 36/47/3 
s 2
f 38/53/5 39/54/6 9/55/6 
f 9/55/6 8/56/5 38/53/5 
s 4
f 39/54/7 40/57/8 11/58/8 
f 11/58/8 9/59/7 39/54/7 
s 2
f 41/60/9 38/53/5 8/61/5 
f 8/61/5 14/62/9 41/60/9 
s 4
f 40/57/8 42/63/10 15/64/10 
f 15/64/10 11/65/8 40/57/8 
s 8
f 42/63/11 43/66/11 17/67/11 
f 17/67/11 15/68/11 42/63/11 
s 2
f 43/66/12 44/69/13 19/70/13 
f 19/70/13 17/67/12 43/66/12 
f 44/69/13 45/71/14 21/72/14 
f 21/72/14 19/70/13 44/69/13 
f 46/73/15 41/60/9 14/74/9 
f 14/74/9 24/75/15 46/73/15 
f 45/71/14 47/76/16 25/77/16 
f 25/77/16 21/72/14 45/71/14 
f 48/78/17 46/73/15 24/79/15 
f 24/79/15 28/80/17 48/78/17 
f 49/81/18 48/78/17 28/82/17 
f 28/82/17 30/83/18 49/81/18 
f 47/76/16 50/84/19 31/85/19 
f 31/85/19 25/77/16 47/76/16 
f 50/84/19 35/46/1 2/49/1 
f 2/49/1 31/85/19 50/84/19 
s 4
f 37/50/4 51/86/20 33/87/20 
f 33/87/20 5/88/4 37/50/4 
s 2
f 51/86/21 49/81/18 30/89/18 
f 30/89/18 33/90/21 51/86/21 
s off
f 1/1/22 4/4/22 52/91/22 
f 4/4/23 6/7/23 52/91/23 
f 6/7/24 34/43/24 52/91/24 
f 34/43/23 29/36/23 52/91/23 
f 29/36/23 27/33/23 52/91/23 
f 27/33/23 23/28/23 52/91/23 
f 23/28/25 13/15/25 52/91/25 
f 13/15/23 7/8/23 52/91/23 
f 7/8/25 10/11/25 52/91/25 
f 10/11/22 12/14/22 52/91/22 
f 12/14/25 16/20/25 52/91/25 
f 16/20/22 18/23/22 52/91/22 
f 18/23/24 20/25/24 52/91/24 
f 20/25/25 22/27/25 52/91/25 
f 22/27/24 26/32/24 52/91/24 
f 26/32/22 32/40/22 52/91/22 
f 32/40/23 1/1/23 52/91/23 
f 37/50/26 36/47/26 53/92/26 
f 36/47/27 35/46/27 53/92/27 
f 35/46/27 50/84/27 53/92/27 
f 50/84/28 47/76/28 53/92/28 
f 47/76/27 45/71/27 53/92/27 
f 45/71/28 44/69/28 53/92/28 
f 44/69/27 43/66/27 53/92/27 
f 43/66/28 42/63/28 53/92/28 
f 42/63/29 40/57/29 53/92/29 
f 40/57/28 39/54/28 53/92/28 
f 39/54/29 38/53/29 53/92/29 
f 38/53/26 41/60/26 53/92/26 
f 41/60/29 46/73/29 53/92/29 
f 46/73/26 48/78/26 53/92/26 
f 48/78/26 49/81/26 53/92/26 
f 49/81/26 51/86/26 53/92/26 
f 51/86/27 37/50/27 53/92/27 
# 102 faces

